<mxfile host="Electron" agent="Mozilla/5.0 (Windows NT 10.0; Win64; x64) AppleWebKit/537.36 (KHTML, like Gecko) draw.io/24.7.5 Chrome/126.0.6478.183 Electron/31.3.0 Safari/537.36" version="24.7.5">
  <diagram name="第 1 页" id="kck9-65kMPhKg6JN6gc8">
    <mxGraphModel dx="1342" dy="832" grid="1" gridSize="10" guides="1" tooltips="1" connect="1" arrows="1" fold="1" page="1" pageScale="1" pageWidth="827" pageHeight="1169" math="0" shadow="0">
      <root>
        <mxCell id="0" />
        <mxCell id="1" parent="0" />
        <mxCell id="998e_73V0RtHq3y8Wg4F-1" value="输入问题" style="rounded=1;whiteSpace=wrap;html=1;" vertex="1" parent="1">
          <mxGeometry x="240" y="200" width="120" height="60" as="geometry" />
        </mxCell>
        <mxCell id="998e_73V0RtHq3y8Wg4F-2" value="系统处理请求&lt;div&gt;显示加载&lt;/div&gt;" style="rounded=1;whiteSpace=wrap;html=1;" vertex="1" parent="1">
          <mxGeometry x="240" y="280" width="120" height="60" as="geometry" />
        </mxCell>
        <mxCell id="998e_73V0RtHq3y8Wg4F-3" value="显示AI回复" style="rounded=1;whiteSpace=wrap;html=1;" vertex="1" parent="1">
          <mxGeometry x="240" y="360" width="120" height="60" as="geometry" />
        </mxCell>
        <mxCell id="998e_73V0RtHq3y8Wg4F-4" value="用户继续提问&lt;div&gt;或结束对话&lt;/div&gt;" style="rounded=1;whiteSpace=wrap;html=1;" vertex="1" parent="1">
          <mxGeometry x="240" y="440" width="120" height="60" as="geometry" />
        </mxCell>
        <mxCell id="998e_73V0RtHq3y8Wg4F-5" value="" style="endArrow=classic;html=1;rounded=0;exitX=0.5;exitY=1;exitDx=0;exitDy=0;entryX=0.5;entryY=0;entryDx=0;entryDy=0;" edge="1" parent="1" source="998e_73V0RtHq3y8Wg4F-1" target="998e_73V0RtHq3y8Wg4F-2">
          <mxGeometry width="50" height="50" relative="1" as="geometry">
            <mxPoint x="580" y="380" as="sourcePoint" />
            <mxPoint x="630" y="330" as="targetPoint" />
          </mxGeometry>
        </mxCell>
        <mxCell id="998e_73V0RtHq3y8Wg4F-6" value="" style="endArrow=classic;html=1;rounded=0;exitX=0.5;exitY=1;exitDx=0;exitDy=0;entryX=0.5;entryY=0;entryDx=0;entryDy=0;" edge="1" parent="1" source="998e_73V0RtHq3y8Wg4F-2" target="998e_73V0RtHq3y8Wg4F-3">
          <mxGeometry width="50" height="50" relative="1" as="geometry">
            <mxPoint x="550" y="330" as="sourcePoint" />
            <mxPoint x="600" y="280" as="targetPoint" />
          </mxGeometry>
        </mxCell>
        <mxCell id="998e_73V0RtHq3y8Wg4F-7" value="" style="endArrow=classic;html=1;rounded=0;exitX=0.5;exitY=1;exitDx=0;exitDy=0;entryX=0.5;entryY=0;entryDx=0;entryDy=0;" edge="1" parent="1" source="998e_73V0RtHq3y8Wg4F-3" target="998e_73V0RtHq3y8Wg4F-4">
          <mxGeometry width="50" height="50" relative="1" as="geometry">
            <mxPoint x="620" y="370" as="sourcePoint" />
            <mxPoint x="670" y="320" as="targetPoint" />
          </mxGeometry>
        </mxCell>
      </root>
    </mxGraphModel>
  </diagram>
</mxfile>
